<svg xmlns="http://www.w3.org/2000/svg" xmlns:xlink="http://www.w3.org/1999/xlink" version="1.1" id="Your_Icon" x="0px" y="0px" width="100px" height="100px" viewBox="0 0 100 100" enable-background="new 0 0 100 100" xml:space="preserve">
<path d="M49.937,11.91c-4.668,6.101-13.008,4.979-17.24,3.609c-4.232-1.37-6.847,0.063-6.847,0.063  C7.924,19.316,13.339,94.379,13.339,94.379L9.17,99.797c0,0-2.74,4.729-5.477-45.313C0.954,4.441,19.314,0.084,34.252,0.084  s15.685,3.361,15.685,3.361h0.125c0,0,0.747-3.361,15.684-3.361c14.938,0,33.298,4.357,30.561,54.399  c-2.738,50.043-5.479,45.313-5.479,45.313l-4.169-5.418c0,0,5.415-75.062-12.511-78.797c0,0-2.613-1.433-6.847-0.063  c-4.23,1.37-12.572,2.492-17.24-3.609H49.937z"/>
</svg>