<svg xmlns="http://www.w3.org/2000/svg" xmlns:xlink="http://www.w3.org/1999/xlink" version="1.1" id="Capa_31" x="0px" y="0px" width="100px" height="100px" viewBox="0 0 100 100" enable-background="new 0 0 100 100" xml:space="preserve">
<g>
	<path fill="#000000" d="M98.016,72.014c-3.776-3.451-8.291-0.311-8.291-0.311c3.463-1.778,8.003,1.118,6.82,5.23   c-0.915,3.186-5.25,3.039-5.25,3.039c-9.792-0.242-17.434-9.707-24.349-15.185c-3.752-2.978-9.216-2.2-12.809,0.711   c-3.594-2.911-9.058-3.688-12.811-0.711c-6.915,5.478-14.554,14.942-24.349,15.185c0,0-4.334,0.146-5.25-3.039   c-1.179-4.112,3.357-7.009,6.82-5.23c0,0-4.515-3.141-8.291,0.311c-3.774,3.455-3.532,18.658,13.125,18.85   c6.385,0.069,23.165-1.993,30.755-9.947c7.592,7.954,24.371,10.017,30.756,9.947C101.549,90.672,101.79,75.469,98.016,72.014z"/>
	<path fill="#000000" d="M33.537,51.521c11.672,0,21.169-9.515,21.169-21.208c0-11.677-9.497-21.178-21.169-21.178   c-10.951,0-19.984,8.366-21.055,19.047H0v4.262h12.481C13.551,43.142,22.584,51.521,33.537,51.521z M33.537,13.991   c8.995,0,16.314,7.322,16.314,16.322c0,9.016-7.32,16.353-16.314,16.353c-8.992,0-16.308-7.337-16.308-16.353   C17.229,21.313,24.545,13.991,33.537,13.991z"/>
	
		<rect x="30.357" y="16.886" transform="matrix(0.7071 0.7071 -0.7071 0.7071 28.4993 -13.9327)" fill="#000000" width="1.421" height="21.098"/>
	
		<rect x="23.36" y="31.461" transform="matrix(-0.7071 0.7071 -0.7071 -0.7071 80.6355 30.9435)" fill="#000000" width="21.098" height="1.42"/>
</g>
</svg>