<svg xmlns="http://www.w3.org/2000/svg" xmlns:xlink="http://www.w3.org/1999/xlink" version="1.1" id="Layer_1" x="0px" y="0px" width="100px" height="30.739px" viewBox="0 0 100 30.739" enable-background="new 0 0 100 30.739" xml:space="preserve">
<path d="M98.171,6.2C95.959,2.259,92.606,0,88.972,0c-3.384,0-6.38,1.959-7.454,4.875c-1.042,2.828-0.002,5.934,2.783,8.307  c0.359,0.305,0.804,0.459,1.247,0.459c0.007,0,0.013,0,0.021,0c1.062,0,1.923-0.861,1.923-1.923c0-0.365-0.103-0.707-0.279-0.998  c-0.342-0.851-0.727-2.479-0.277-3.18c0.333-0.522,1.388-0.6,1.985-0.6c1.335,0,2.498,1.914,2.54,4.179  c0.07,3.869-2.816,8.11-11.131,8.414c-0.183,0.006-0.364,0.01-0.545,0.01c0,0,0,0-0.001,0c-6.007,0-10.759-3.677-14.951-6.92  c-3.398-2.629-6.333-4.901-9.511-4.901c-1.413,0-2.745,0.463-3.961,1.377C50.845,9.487,50.405,9.914,50,10.355  c-0.405-0.441-0.845-0.868-1.361-1.257c-1.214-0.913-2.546-1.376-3.96-1.376c-3.177,0-6.112,2.271-9.511,4.901  c-4.318,3.34-9.223,7.133-15.497,6.911c-8.314-0.304-11.201-4.545-11.13-8.414C8.582,8.854,9.745,6.94,11.08,6.94  c0.598,0,1.65,0.078,1.985,0.597c0.448,0.695,0.078,2.41-0.359,3.374c-0.379,0.82-0.136,1.792,0.583,2.338  c0.719,0.547,1.722,0.519,2.41-0.067c2.785-2.373,3.826-5.479,2.784-8.307C17.408,1.959,14.413,0,11.028,0  C7.394,0,4.041,2.26,1.829,6.2c-2.296,4.091-2.435,8.582-0.391,12.646c3.024,6.012,10.411,10.313,19.759,11.508  c2,0.256,3.993,0.386,5.926,0.386c11.112,0,19.242-4.241,22.876-9.169c3.634,4.927,11.765,9.168,22.875,9.169  c0.002,0,0.003,0,0.004,0c1.932,0,3.924-0.13,5.923-0.386c9.35-1.194,16.736-5.497,19.76-11.508  C100.605,14.782,100.467,10.291,98.171,6.2z"/>
</svg>